<svg xmlns="http://www.w3.org/2000/svg" viewBox="0 0 304.41 63.36"><defs><style>.cls-1{fill:#00a99d;}</style></defs><title>Asset 1test</title><g id="Layer_2" data-name="Layer 2"><g id="Layer_2-2" data-name="Layer 2"><path class="cls-1" d="M19.66,60.62a22.41,22.41,0,0,1-8.25-1.69,17,17,0,0,1-7.45-6l6.55-7.13a17.05,17.05,0,0,0,4.25,3.6,8.78,8.78,0,0,0,4.46,1.3,6.94,6.94,0,0,0,5-1.69C25.42,47.87,26,45.77,26,42.7V22.54H7.92V12.89H37.51V43.63a20.45,20.45,0,0,1-1.73,8.53,13.49,13.49,0,0,1-5.61,6.16Q26.28,60.63,19.66,60.62Z" transform="translate(-3.96 -12.02)"/><path class="cls-1" d="M57.31,60.62a20.89,20.89,0,0,1-8.75-1.72A23.92,23.92,0,0,1,42.41,55l6.05-6.84A14.58,14.58,0,0,0,52,50.4a10,10,0,0,0,4.35,1,9.4,9.4,0,0,0,5.15-1.48,10.24,10.24,0,0,0,3.78-4.82A23.54,23.54,0,0,0,66.67,36a24.92,24.92,0,0,0-1.22-8.78,8.62,8.62,0,0,0-3-4.25,6.81,6.81,0,0,0-3.74-1.15,7.83,7.83,0,0,0-3.1.64,5.23,5.23,0,0,0-2.41,2.16,7.88,7.88,0,0,0-.9,4c0,2.16.58,3.7,1.73,4.64a6.82,6.82,0,0,0,4.46,1.4,9,9,0,0,0,4-1,12.88,12.88,0,0,0,4.1-3.56l.5,7.34a17.82,17.82,0,0,1-5.58,3.92,13.83,13.83,0,0,1-5.58,1.41,16.8,16.8,0,0,1-7.16-1.48,11.31,11.31,0,0,1-5.08-4.61,15.41,15.41,0,0,1-1.87-8,14.74,14.74,0,0,1,2.31-8.32A15,15,0,0,1,50.22,15a19.08,19.08,0,0,1,15-.54,17,17,0,0,1,6,4,19.86,19.86,0,0,1,4.25,7.06A30.59,30.59,0,0,1,77.11,36a32.6,32.6,0,0,1-1.65,10.91A22.57,22.57,0,0,1,71,54.58a18.25,18.25,0,0,1-6.34,4.53A18.71,18.71,0,0,1,57.31,60.62Z" transform="translate(-3.96 -12.02)"/><path class="cls-1" d="M81.29,59.76V13H97.56a35.63,35.63,0,0,1,8.82,1,12.39,12.39,0,0,1,6.23,3.53,10.09,10.09,0,0,1,2.3,7.05A11,11,0,0,1,113,30.6a9.78,9.78,0,0,1-6.08,4v.29a13.5,13.5,0,0,1,7.56,3.6A10.38,10.38,0,0,1,117,45.94a12.42,12.42,0,0,1-2.41,7.84,13.83,13.83,0,0,1-6.48,4.54,27.46,27.46,0,0,1-9.18,1.44ZM92.73,31.54H97.2c2.25,0,3.9-.48,4.93-1.44a5,5,0,0,0,1.55-3.82,3.85,3.85,0,0,0-1.59-3.49,9.15,9.15,0,0,0-5-1.05h-4.4Zm0,19.29h5.33q4,0,5.84-1.44A5.21,5.21,0,0,0,105.77,45a4.57,4.57,0,0,0-1.87-4.07q-1.87-1.26-5.84-1.26H92.73Z" transform="translate(-3.96 -12.02)"/><path class="cls-1" d="M134.49,60.62a28.75,28.75,0,0,1-7.16-.82,23,23,0,0,1-5.72-2.27,17.92,17.92,0,0,1-4.32-3.39l5.25-7.2a21.59,21.59,0,0,0,5.11,3.21,13.67,13.67,0,0,0,5.62,1.26,13.87,13.87,0,0,0,4.21-.58,6.59,6.59,0,0,0,2.88-1.65,3.68,3.68,0,0,0,1-2.67,4.72,4.72,0,0,0-1.16-3.2,7.64,7.64,0,0,0-4-2.05,35,35,0,0,0-8.1-.72V32.47a26.21,26.21,0,0,0,6.87-.72,8.05,8.05,0,0,0,3.75-2,4.21,4.21,0,0,0,1.19-3,3.94,3.94,0,0,0-1.7-3.42,8,8,0,0,0-4.64-1.18,11.43,11.43,0,0,0-4.75,1,23.07,23.07,0,0,0-4.61,2.88l-5.76-7a30,30,0,0,1,7.38-4.32,22.15,22.15,0,0,1,8.32-1.58,24.75,24.75,0,0,1,9,1.51,13.66,13.66,0,0,1,6,4.32,11,11,0,0,1,2.16,6.91,8.59,8.59,0,0,1-2.23,5.94,16.2,16.2,0,0,1-6.33,4.07v.29A18.31,18.31,0,0,1,148,38.48a11.28,11.28,0,0,1,3.6,3.68,9.7,9.7,0,0,1,1.34,5.14,10.65,10.65,0,0,1-2.6,7.24,16.26,16.26,0,0,1-6.76,4.54A26,26,0,0,1,134.49,60.62Z" transform="translate(-3.96 -12.02)"/><path class="cls-1" d="M168.33,75.38l-2.73-6.55a16.8,16.8,0,0,0,7.16-4.25,7.93,7.93,0,0,0,2.2-5.83l-.22-9,4.47,7.56a8.87,8.87,0,0,1-2.31,1.23,8,8,0,0,1-2.59.43,9.15,9.15,0,0,1-4-.9,7.7,7.7,0,0,1-3.06-2.63A7.34,7.34,0,0,1,166,51.19a7,7,0,0,1,2.52-5.58,9.09,9.09,0,0,1,6-2.12,8.06,8.06,0,0,1,7.05,3.38Q184,50.26,184,56.38a18.15,18.15,0,0,1-4,11.84Q176.11,73.08,168.33,75.38Z" transform="translate(-3.96 -12.02)"/><path class="cls-1" d="M198.07,59.76V12.89h11.52V50.11H230v9.65Z" transform="translate(-3.96 -12.02)"/><path class="cls-1" d="M236.23,59.76V12.89h11.52V50.11h20.37v9.65Z" transform="translate(-3.96 -12.02)"/><path class="cls-1" d="M292.82,60.62a23.15,23.15,0,0,1-8.35-1.51,20.39,20.39,0,0,1-7-4.5,21.06,21.06,0,0,1-4.83-7.49,28.67,28.67,0,0,1-1.76-10.47,27.15,27.15,0,0,1,3.06-13.36,21.16,21.16,0,0,1,8.17-8.39A22.91,22.91,0,0,1,293.54,12a18,18,0,0,1,8.14,1.84,23,23,0,0,1,6,4.21l-6.33,7.06a11.88,11.88,0,0,0-3.49-2.34,10.94,10.94,0,0,0-4.36-.83A9.64,9.64,0,0,0,288,23.65a11.15,11.15,0,0,0-3.89,4.9,19.1,19.1,0,0,0-1.4,7.67,19.77,19.77,0,0,0,1.4,7.84,10.89,10.89,0,0,0,4,4.94,10.72,10.72,0,0,0,6,1.69,8.89,8.89,0,0,0,4.4-1.12A14.92,14.92,0,0,0,302,46.8l6.34,6.91a18.44,18.44,0,0,1-6.84,5.19A21.56,21.56,0,0,1,292.82,60.62Z" transform="translate(-3.96 -12.02)"/></g></g></svg>